<svg xmlns="http://www.w3.org/2000/svg" xmlns:xlink="http://www.w3.org/1999/xlink" viewBox="0 0 67.06 67.06"><defs><style>.cls-1{fill:url(#Degradado_sin_nombre_3);}.cls-2{fill:#fff;}</style><linearGradient id="Degradado_sin_nombre_3" x1="33.53" y1="67.06" x2="33.53" gradientUnits="userSpaceOnUse"><stop offset="0" stop-color="#10488f"/><stop offset="1" stop-color="#4d96be"/></linearGradient></defs><g id="Capa_2" data-name="Capa 2"><g id="Capa_1-2" data-name="Capa 1"><path class="cls-1" d="M33.53,67.06A33.53,33.53,0,1,1,67.06,33.53,33.57,33.57,0,0,1,33.53,67.06Z"/><rect class="cls-2" x="17.87" y="39.93" width="6.17" height="9.42" rx="0.5"/><path class="cls-2" d="M21,36.26a2.83,2.83,0,0,0,2.51-4.16l4.83-5.48a2.78,2.78,0,0,0,1,.19A2.86,2.86,0,0,0,31,26.26l3.89,2.52a3.05,3.05,0,0,0-.06.6,2.84,2.84,0,1,0,5.67,0A2.88,2.88,0,0,0,40,27.8l5.26-7.4a2.83,2.83,0,1,0-2.11-2.74,2.89,2.89,0,0,0,.48,1.59l-5.27,7.4a2.46,2.46,0,0,0-.72-.1A2.85,2.85,0,0,0,36,27.1l-3.9-2.52a3.07,3.07,0,0,0,.07-.6,2.84,2.84,0,1,0-5.67,0,2.81,2.81,0,0,0,.33,1.32L22,30.78a2.83,2.83,0,1,0-1,5.48Zm0-4.33a1.5,1.5,0,1,1-1.5,1.5A1.5,1.5,0,0,1,21,31.93ZM27.79,24a1.5,1.5,0,1,1,1.5,1.5A1.51,1.51,0,0,1,27.79,24Zm9.84,3.9a1.51,1.51,0,1,1-1.5,1.5A1.5,1.5,0,0,1,37.63,27.88Zm6.84-10.22A1.5,1.5,0,1,1,46,19.17,1.51,1.51,0,0,1,44.47,17.66Z"/><rect class="cls-2" x="26.21" y="31.72" width="6.17" height="17.63" rx="0.5"/><rect class="cls-2" x="34.55" y="37.21" width="6.17" height="12.14" rx="0.5"/><rect class="cls-2" x="42.89" y="25.81" width="6.17" height="23.54" rx="0.5"/></g></g></svg>