<svg xmlns="http://www.w3.org/2000/svg" xmlns:xlink="http://www.w3.org/1999/xlink" viewBox="0 0 67.06 67.06"><defs><style>.cls-1{fill:url(#Degradado_sin_nombre_3);}.cls-2{fill:#fff;fill-rule:evenodd;}</style><linearGradient id="Degradado_sin_nombre_3" x1="33.53" y1="67.06" x2="33.53" gradientUnits="userSpaceOnUse"><stop offset="0" stop-color="#10488f"/><stop offset="1" stop-color="#4d96be"/></linearGradient></defs><g id="Capa_2" data-name="Capa 2"><g id="Capa_1-2" data-name="Capa 1"><path class="cls-1" d="M33.53,67.06A33.53,33.53,0,1,1,67.06,33.53,33.57,33.57,0,0,1,33.53,67.06Z"/><path class="cls-2" d="M54.16,24.33a1.18,1.18,0,0,0-1.28-1l-1.38.14a10.46,10.46,0,0,0-1.34-2.54l.83-1a1.16,1.16,0,0,0-.17-1.65l-2.25-1.8a1.23,1.23,0,0,0-1.69.17l-.75.9a10.66,10.66,0,0,0-2.39-.8l-.54-.1-.1-1.07a1.22,1.22,0,0,0-1.32-1.08l-2.9.29a1.22,1.22,0,0,0-1.08,1.32l.11,1.07a10.43,10.43,0,0,0-2.68,1.47l-.92-.73a1.22,1.22,0,0,0-1.69.17l-1.85,2.21a1.16,1.16,0,0,0,.17,1.65l1,.81a9.75,9.75,0,0,0-.7,2.16c-.05.2-.08.4-.11.6l-1.38.14a1.18,1.18,0,0,0-1.05,1.28L29,29.73a1.17,1.17,0,0,0,1.28,1.05l1.38-.14A10.52,10.52,0,0,0,33,33.19l-.83,1a1.16,1.16,0,0,0,.17,1.65l2.25,1.8a1.22,1.22,0,0,0,1.69-.17l.75-.9a10.68,10.68,0,0,0,2.39.81l.54.1.1,1.07a1.2,1.2,0,0,0,1.32,1.07l2.9-.29A1.21,1.21,0,0,0,45.36,38l-.11-1.08a10.4,10.4,0,0,0,2.68-1.46l.92.73A1.23,1.23,0,0,0,50.54,36l1.85-2.22a1.16,1.16,0,0,0-.17-1.65l-1-.8a9.83,9.83,0,0,0,.7-2.17c.05-.2.08-.4.11-.6l1.38-.13a1.19,1.19,0,0,0,1.05-1.29Zm-5.62,4.16A7.11,7.11,0,1,1,43,20.07,7.11,7.11,0,0,1,48.54,28.49Z"/><path class="cls-2" d="M29.76,37.67l-.86-.32a6.67,6.67,0,0,0,0-1.61,3,3,0,0,0-.06-.43l.9-.4a.83.83,0,0,0,.42-1.1L29.33,32a.84.84,0,0,0-1.1-.43l-.9.4a7.56,7.56,0,0,0-1.47-1.41l.34-.85a.83.83,0,0,0-.48-1.08l-1.92-.71a.87.87,0,0,0-1.1.49l-.3.77a7.65,7.65,0,0,0-1.79,0l-.38.05-.31-.7a.87.87,0,0,0-1.13-.43l-1.89.85A.85.85,0,0,0,16.47,30l.31.7a7.39,7.39,0,0,0-1.48,1.58L14.52,32a.85.85,0,0,0-1.1.49l-.75,1.9a.81.81,0,0,0,.48,1.07l.85.32a7.88,7.88,0,0,0,0,1.61l.06.43-.89.4a.83.83,0,0,0-.42,1.1l.82,1.85a.85.85,0,0,0,1.1.42l.89-.4a7.6,7.6,0,0,0,1.48,1.41l-.34.86a.81.81,0,0,0,.48,1.07l1.92.71a.87.87,0,0,0,1.1-.49l.3-.77a7.65,7.65,0,0,0,1.79,0l.38-.05.31.7a.87.87,0,0,0,1.13.43L26,44.25a.85.85,0,0,0,.43-1.12l-.31-.7a7.93,7.93,0,0,0,1.48-1.58l.78.29a.86.86,0,0,0,1.09-.49l.76-1.91A.82.82,0,0,0,29.76,37.67ZM22,41.59A5,5,0,1,1,26.46,36,5,5,0,0,1,22,41.59Z"/><path class="cls-2" d="M42.64,45.76a.7.7,0,0,0-.78-.59l-.8.11a6.54,6.54,0,0,0-.85-1.47l.47-.6a.68.68,0,0,0-.13-1l-1.37-1a.72.72,0,0,0-1,.14l-.42.54a6.66,6.66,0,0,0-1.42-.42L36,41.44l-.09-.63a.71.71,0,0,0-.79-.6l-1.71.23a.72.72,0,0,0-.6.8l.08.63a6.16,6.16,0,0,0-1.54.92l-.56-.41a.72.72,0,0,0-1,.13l-1,1.35a.67.67,0,0,0,.13,1l.61.46a6.64,6.64,0,0,0-.37,1.29c0,.11,0,.23-.05.35l-.8.11a.69.69,0,0,0-.59.78l.22,1.66a.71.71,0,0,0,.78.6l.81-.12a5.81,5.81,0,0,0,.85,1.47l-.47.61A.67.67,0,0,0,30,53l1.37,1a.73.73,0,0,0,1-.14l.42-.54a6.66,6.66,0,0,0,1.42.42l.32,0,.09.63a.71.71,0,0,0,.79.61l1.71-.23a.72.72,0,0,0,.6-.8l-.09-.63a6.22,6.22,0,0,0,1.55-.92l.56.41a.71.71,0,0,0,1-.14l1-1.34a.68.68,0,0,0-.13-1L41.06,50a6.15,6.15,0,0,0,.36-1.29c0-.12,0-.23,0-.35l.81-.11a.7.7,0,0,0,.59-.78Zm-3.22,2.57A4.19,4.19,0,1,1,36,43.49,4.19,4.19,0,0,1,39.42,48.33Z"/></g></g></svg>