<svg xmlns="http://www.w3.org/2000/svg" xmlns:xlink="http://www.w3.org/1999/xlink" viewBox="0 0 76.23 88.86"><defs><style>.cls-1{fill:url(#Degradado_sin_nombre_55);}</style><linearGradient id="Degradado_sin_nombre_55" y1="44.43" x2="76.23" y2="44.43" gradientUnits="userSpaceOnUse"><stop offset="0" stop-color="#10488f"/><stop offset="1" stop-color="#4d96be"/></linearGradient></defs><g id="Capa_2" data-name="Capa 2"><g id="Capa_1-2" data-name="Capa 1"><path class="cls-1" d="M28.09,88.86a1.75,1.75,0,0,1-1.74-1.75V70.77a1.75,1.75,0,0,1,1.06-1.61l.32-.06-.82-1.31a53.58,53.58,0,0,1-3.45-6.44l-1.13-2.89-9.7-17.34a1.72,1.72,0,0,1,.16-1.94c4.08-5,8.94-3.08,12.5,0a42,42,0,0,1,5,5.47l1.6,2.1,0-.31c.17-2.9.11-6.79,0-11.36-.08-3.54-.18-7.43-.17-11.41l.05-2.25H30.46a4.28,4.28,0,0,1-4.28-4.28V4.28A4.28,4.28,0,0,1,30.46,0H46.13a4.28,4.28,0,0,1,4.28,4.28V17.16a4.28,4.28,0,0,1-4.28,4.28H45.6l.84,8.6.91-.55A6,6,0,0,1,50.88,29a7.55,7.55,0,0,1,4.2,2.66l.16.19,1.28-.48A7.26,7.26,0,0,1,65,34l.08.12.79,0c4.26.29,7,3.47,7,8.22v.1c-.46,9.93-1.49,17.81-4,24.63L68,69.17l.54.36a1.73,1.73,0,0,1,.51,1.24V87.11a1.75,1.75,0,0,1-1.74,1.75Zm37.48-3.49V72.51H29.83V85.37ZM34.94,80.43a1.75,1.75,0,0,1,0-3.49h2.54a1.75,1.75,0,0,1,0,3.49ZM64.38,69l0-.2a1.28,1.28,0,0,1,.11-.33c2.74-6,4-13,4.67-22.14l.23-4-.1-1.2c-.41-2.66-2.17-3.84-4.93-3.51a1.74,1.74,0,0,1-1.71-.85c-1.93-3.32-4.56-2.73-7-1.3a1.74,1.74,0,0,1-2.26-.45c-1.34-1.76-2.29-2.5-3.1-2.64s-1.92.1-4.07,2.15a1.75,1.75,0,0,1-2.94-1.09L41.18,12.05c-.61-4.78-5-4.65-5.45,0-1.4,15.57,1,33.21-1.1,39.59a1.74,1.74,0,0,1-3,.53C29.13,49,26.17,44.58,23,41.83c-2.66-2.3-4.71-3-6.7-1.33l9.12,16.36a2.55,2.55,0,0,1,.13.29,47.61,47.61,0,0,0,5.56,10.76,1.79,1.79,0,0,1,.28,1V69ZM4.28,21.44A4.28,4.28,0,0,1,0,17.16V4.28A4.28,4.28,0,0,1,4.28,0H20a4.28,4.28,0,0,1,4.28,4.28V17.16A4.27,4.27,0,0,1,20,21.44Zm52,0A4.28,4.28,0,0,1,52,17.16V4.28A4.28,4.28,0,0,1,56.28,0H72a4.28,4.28,0,0,1,4.28,4.28V17.16A4.28,4.28,0,0,1,72,21.44ZM20,18a.8.8,0,0,0,.8-.8V4.28a.81.81,0,0,0-.8-.8H4.28a.81.81,0,0,0-.8.8V17.16a.8.8,0,0,0,.8.8Zm52,0a.8.8,0,0,0,.8-.8V4.28a.81.81,0,0,0-.8-.8H56.28a.81.81,0,0,0-.8.8V17.16a.8.8,0,0,0,.8.8Z"/></g></g></svg>