<svg xmlns="http://www.w3.org/2000/svg" xmlns:xlink="http://www.w3.org/1999/xlink" viewBox="0 0 67.06 67.06"><defs><style>.cls-1{fill:url(#Degradado_sin_nombre_3);}.cls-2{fill:#fff;}</style><linearGradient id="Degradado_sin_nombre_3" x1="33.53" y1="67.06" x2="33.53" gradientUnits="userSpaceOnUse"><stop offset="0" stop-color="#10488f"/><stop offset="1" stop-color="#4d96be"/></linearGradient></defs><g id="Capa_2" data-name="Capa 2"><g id="Capa_1-2" data-name="Capa 1"><path class="cls-1" d="M33.53,67.06A33.53,33.53,0,1,1,67.06,33.53,33.57,33.57,0,0,1,33.53,67.06Z"/><path class="cls-2" d="M21.34,24.41a.8.8,0,0,1-.46-.16.7.7,0,0,1-.14-1A16.34,16.34,0,0,1,33.7,17h0A13.81,13.81,0,0,1,45,22.66a.74.74,0,0,1-.15,1,.74.74,0,0,1-1.05-.12,12.21,12.21,0,0,0-10.08-5h0a14.82,14.82,0,0,0-11.76,5.62A.72.72,0,0,1,21.34,24.41Z"/><path class="cls-2" d="M20.78,40a.75.75,0,0,1-.49-1.32c1.67-1.43,1.32-3.11.92-5.07l0-.1a10.51,10.51,0,0,1,2.3-9.2A13.61,13.61,0,0,1,34.58,20c5,.3,7.5,3.45,9.54,6a12,12,0,0,0,3,3,.75.75,0,0,1-.73,1.32,13.12,13.12,0,0,1-3.44-3.39c-1.94-2.42-4.15-5.16-8.45-5.41a12.09,12.09,0,0,0-9.87,3.84,8.89,8.89,0,0,0-2,7.91l0,.11c.42,2,.94,4.51-1.41,6.51A.76.76,0,0,1,20.78,40Z"/><path class="cls-2" d="M22.55,42.54a.75.75,0,0,1-.13-1.49c.1,0,2.72-.67,1.57-6.17a17.06,17.06,0,0,1-.31-2.3,9.79,9.79,0,0,1,9.77-9.78,9.9,9.9,0,0,1,9,6.07c1.14,2.54,4.8,4.32,4.84,4.34a.75.75,0,0,1-.65,1.36c-.18-.09-4.21-2-5.56-5.09a8.41,8.41,0,0,0-7.68-5.18,8.28,8.28,0,0,0-8.27,8.28,14.38,14.38,0,0,0,.29,2c.57,2.76.37,4.91-.61,6.37a3.66,3.66,0,0,1-2.17,1.58Z"/><path class="cls-2" d="M24.55,44.67a.76.76,0,0,1-.7-.46.75.75,0,0,1,.4-1c.15-.07,3.79-1.7,3-5.58-.05-.28-.16-.81-.27-1.3-.07-.33-.14-.64-.18-.85-.76-3.73.25-5.95,1.23-7.15A7.53,7.53,0,0,1,34,25.81c3.4,0,5.37,2.93,6.84,5.8a9.66,9.66,0,0,0,3.09,3.26.74.74,0,0,1,.18,1,.76.76,0,0,1-1,.19,10.93,10.93,0,0,1-3.55-3.8c-1.8-3.5-3.45-5-5.51-5a6,6,0,0,0-4.77,2c-1.13,1.38-1.44,3.37-.92,5.9,0,.2.1.51.17.84.11.5.22,1,.28,1.32a6.58,6.58,0,0,1-3.92,7.25A.75.75,0,0,1,24.55,44.67Z"/><path class="cls-2" d="M30.08,47.53a.76.76,0,0,1-.68-.43.75.75,0,0,1,.36-1,3.24,3.24,0,0,0,1.47-1.49,2.83,2.83,0,0,1,2.68-1.71h0a2.84,2.84,0,0,1,1.9.73.74.74,0,0,1,.09,1,.75.75,0,0,1-1.06.1,1.35,1.35,0,0,0-.93-.37h0c-.8,0-1,.28-1.39,1a4.73,4.73,0,0,1-2.12,2.07A.71.71,0,0,1,30.08,47.53Z"/><path class="cls-2" d="M26.74,46.48a.75.75,0,0,1-.32-1.43,6.14,6.14,0,0,0,3.91-5.73.75.75,0,1,1,1.5,0,7.53,7.53,0,0,1-4.78,7.13A.7.7,0,0,1,26.74,46.48Z"/><path class="cls-2" d="M36,41.81a.77.77,0,0,1-.53-.21,39.67,39.67,0,0,1-4.77-5.18,6,6,0,0,1-1.06-4.53A3.79,3.79,0,0,1,31.4,29.4a3.93,3.93,0,0,1,3.3-.49,4.54,4.54,0,0,1,2.75,2.79,16.77,16.77,0,0,0,3.15,4.44.77.77,0,0,1,0,1.07.75.75,0,0,1-1.06,0,18.33,18.33,0,0,1-3.45-4.9,3.19,3.19,0,0,0-1.82-1.94,2.46,2.46,0,0,0-2,.34,2.27,2.27,0,0,0-1.05,1.52A4.58,4.58,0,0,0,32,35.58a39.41,39.41,0,0,0,4.57,4.94.75.75,0,0,1,0,1.06A.73.73,0,0,1,36,41.81Z"/><path class="cls-2" d="M37.74,39.18a.73.73,0,0,1-.53-.22,23.66,23.66,0,0,1-4.49-5.83.75.75,0,0,1,.35-1,.76.76,0,0,1,1,.35,23,23,0,0,0,4.19,5.42.75.75,0,0,1-.53,1.28Z"/><path class="cls-2" d="M36.7,45.25a8.38,8.38,0,1,0,8.38-8.38A8.39,8.39,0,0,0,36.7,45.25Zm8.38-6.88a6.88,6.88,0,1,1-6.87,6.88A6.89,6.89,0,0,1,45.08,38.37Z"/><path class="cls-2" d="M43.77,48.51a.78.78,0,0,0,.52.21h0a.74.74,0,0,0,.53-.25l4.83-5.36a.75.75,0,0,0-1.12-1l-4.31,4.79-2.39-2.3a.75.75,0,0,0-1.06,0,.76.76,0,0,0,0,1.07Z"/><path class="cls-2" d="M18,19.6a.76.76,0,0,1-.76-.75V14.48a.76.76,0,0,1,.75-.76h4.36a.76.76,0,0,1,0,1.51h-3.6v3.62A.76.76,0,0,1,18,19.6Z"/><path class="cls-2" d="M22.35,50.72H18a.74.74,0,0,1-.75-.74V45.62a.76.76,0,0,1,1.51,0v3.6h3.6a.75.75,0,0,1,0,1.5Z"/><path class="cls-2" d="M49.88,19.6a.75.75,0,0,1-.75-.75V15.23H45.51a.76.76,0,0,1,0-1.51h4.36a.77.77,0,0,1,.76.76v4.37A.75.75,0,0,1,49.88,19.6Z"/></g></g></svg>