<svg xmlns="http://www.w3.org/2000/svg" xmlns:xlink="http://www.w3.org/1999/xlink" viewBox="0 0 95.2 78.16"><defs><style>.cls-1{stroke-miterlimit:10;fill:url(#Degradado_sin_nombre_55);stroke:url(#Degradado_sin_nombre_55-2);}</style><linearGradient id="Degradado_sin_nombre_55" x1="0.5" y1="39.08" x2="94.7" y2="39.08" gradientUnits="userSpaceOnUse"><stop offset="0" stop-color="#10488f"/><stop offset="1" stop-color="#4d96be"/></linearGradient><linearGradient id="Degradado_sin_nombre_55-2" x1="0" y1="39.08" x2="95.2" y2="39.08" xlink:href="#Degradado_sin_nombre_55"/></defs><g id="Capa_2" data-name="Capa 2"><g id="Capa_1-2" data-name="Capa 1"><path class="cls-1" d="M8.75,77.66C3,77.66.5,73,.5,68.49V2.37A1.87,1.87,0,0,1,2.37.5H26.08a1.87,1.87,0,0,1,1.64,1l3.75,6.81H85.2a9.06,9.06,0,0,1,9,7.06l0,.26.15.18a1.85,1.85,0,0,1,.32,1V68.05c0,4-1.89,9.61-7.67,9.61ZM87,73.92c2.56,0,3.92-2.3,3.92-5.87V18.7H34a1.88,1.88,0,0,1-1.64-1L25,4.24H4.24V68.49c0,3.24,1.59,5.43,4.51,5.43ZM38.47,66a4.9,4.9,0,0,1-4.8-5V45.17a5,5,0,0,1,2.88-4.59l.89-.19,0-.35c-.17-8.88,5.1-14,10.93-14s11,5.13,10.49,14.05v.15l.39,0A5,5,0,0,1,63,45.17V61a4.9,4.9,0,0,1-4.8,5Zm10.06-9.84a1.88,1.88,0,0,1-1.88-1.88V51.37a1.88,1.88,0,0,1,3.75,0v2.94A1.88,1.88,0,0,1,48.53,56.19Zm6.54-16,0-.25c.45-7.24-3.45-10.13-6.75-10.13S41,32.78,41.15,40v.17ZM90.09,15l-1-1.39A5.55,5.55,0,0,0,85.2,12H33.53L35.14,15Z"/></g></g></svg>