<svg xmlns="http://www.w3.org/2000/svg" xmlns:xlink="http://www.w3.org/1999/xlink" viewBox="0 0 69.56 69.45"><defs><style>.cls-1{fill:url(#Degradado_sin_nombre_55);}.cls-2{fill:url(#Degradado_sin_nombre_55-2);}.cls-3{fill:url(#Degradado_sin_nombre_55-3);}</style><linearGradient id="Degradado_sin_nombre_55" x1="19.9" y1="33.73" x2="49.65" y2="33.73" gradientUnits="userSpaceOnUse"><stop offset="0" stop-color="#10488f"/><stop offset="1" stop-color="#4d96be"/></linearGradient><linearGradient id="Degradado_sin_nombre_55-2" x1="12.8" y1="33.73" x2="56.75" y2="33.73" xlink:href="#Degradado_sin_nombre_55"/><linearGradient id="Degradado_sin_nombre_55-3" x1="0" y1="34.72" x2="69.56" y2="34.72" xlink:href="#Degradado_sin_nombre_55"/></defs><g id="Capa_2" data-name="Capa 2"><g id="Capa_1-2" data-name="Capa 1"><path class="cls-1" d="M34.78,18.86A14.88,14.88,0,1,0,49.65,33.73,14.88,14.88,0,0,0,34.78,18.86Zm3.7,6.81A2,2,0,0,1,35.93,27a6.79,6.79,0,0,0-8.64,6.69,2,2,0,0,1-1.91,2.12h-.2a2,2,0,0,1-1.92-1.91,10.81,10.81,0,0,1,14-10.73A2,2,0,0,1,38.48,25.67Z"/><path class="cls-2" d="M34.78,11.76a22,22,0,1,0,22,22A22,22,0,0,0,34.78,11.76Zm0,40.88a18.91,18.91,0,1,1,18.9-18.91A18.92,18.92,0,0,1,34.78,52.64Z"/><path class="cls-3" d="M54.54,0H15A15,15,0,0,0,0,15V54.54A15,15,0,0,0,13.29,69.45h43a15,15,0,0,0,13.3-14.91V15A15,15,0,0,0,54.54,0ZM65.3,54.54A10.78,10.78,0,0,1,54.54,65.3H15A10.77,10.77,0,0,1,4.26,54.54V15A10.76,10.76,0,0,1,15,4.26H54.54A10.77,10.77,0,0,1,65.3,15Z"/></g></g></svg>