<svg xmlns="http://www.w3.org/2000/svg" xmlns:xlink="http://www.w3.org/1999/xlink" viewBox="0 0 67.06 67.06"><defs><style>.cls-1{fill:url(#Degradado_sin_nombre_3);}.cls-2{fill:#fff;}.cls-3{fill:none;stroke:#fff;stroke-linecap:round;stroke-linejoin:round;stroke-width:2px;}</style><linearGradient id="Degradado_sin_nombre_3" x1="33.53" y1="67.06" x2="33.53" gradientUnits="userSpaceOnUse"><stop offset="0" stop-color="#10488f"/><stop offset="1" stop-color="#4d96be"/></linearGradient></defs><g id="Capa_2" data-name="Capa 2"><g id="Capa_1-2" data-name="Capa 1"><path class="cls-1" d="M33.53,67.06A33.53,33.53,0,1,1,67.06,33.53,33.57,33.57,0,0,1,33.53,67.06Z"/><path class="cls-2" d="M32.16,19.79a3,3,0,0,0,3-2.7c0-.11,0-.22,0-.33a3,3,0,0,0-.92-2.19,3.1,3.1,0,0,0-1.51-.79,2.91,2.91,0,0,0-.6-.06,3,3,0,0,0-2.53,1.36,3,3,0,0,0-.5,1.68,3.19,3.19,0,0,0,.16,1A3.15,3.15,0,0,0,30.1,19a3,3,0,0,0,2.06.81Zm1.5,9,3.2,2.45a1.57,1.57,0,1,0,1.91-2.5l-4.6-3.53ZM30.19,36.9l-2.39-2a5.78,5.78,0,0,1-.7-.7l-3,9.28a1.89,1.89,0,0,0,3.6,1.16Zm.5-16.24a6,6,0,0,0-2.21.86l-.13.07-1.53.81-1.54.81a2.89,2.89,0,0,0-1.37,1.66L22.32,30a1.57,1.57,0,0,0,3,.92l1.54-5,1-.54-.7,4.95a3.65,3.65,0,0,0,1.29,3.72l4,3.39.5,6.7a1.9,1.9,0,1,0,3.78-.28l-.53-7.11a2.93,2.93,0,0,0-1-1.92l-2.43-2.1a1.3,1.3,0,0,1-.55-1.43l1.09-7.75a2.59,2.59,0,0,0,0-.88,2.68,2.68,0,0,0-.54-1.11,2.41,2.41,0,0,0-2.07-.91Z"/><line class="cls-3" x1="18.28" y1="53.09" x2="31.13" y2="46.99"/><line class="cls-3" x1="39.63" y1="42.95" x2="51.87" y2="37.13"/><line class="cls-3" x1="39.39" y1="38.3" x2="45.44" y2="35.43"/><line class="cls-3" x1="13.56" y1="50.04" x2="20.45" y2="46.77"/><line class="cls-3" x1="22.08" y1="56.57" x2="58.76" y2="39.02"/><line class="cls-3" x1="32.22" y1="57.04" x2="59.46" y2="43.48"/></g></g></svg>