<svg xmlns="http://www.w3.org/2000/svg" viewBox="0 0 39.06 39.06"><defs><style>.cls-1{fill:#00589c;}.cls-2{fill:#fff;}</style></defs><g id="Capa_2" data-name="Capa 2"><g id="Capa_1-2" data-name="Capa 1"><polygon class="cls-1" points="11.19 0 0 11.34 0 27.38 11.36 39.06 27.79 39.06 39.06 27.28 39.06 11.29 27.55 0 11.19 0"/><path class="cls-2" d="M25.92,19.3a6,6,0,0,1-4.77,6H19.43L16.7,19.76V13.12h3.46a5.34,5.34,0,0,1,1.19.15,3.57,3.57,0,0,1,1.29.52V16.3h2.59a5.3,5.3,0,0,1,.69,3"/><path class="cls-1" d="M23.31,19.26a3.33,3.33,0,0,1-1.76,3.07,4.35,4.35,0,0,1-2.25.41v-7a6.31,6.31,0,0,1,2.07.37,3.28,3.28,0,0,1,1.95,3.14"/><polygon class="cls-2" points="12.94 13.27 6.83 25.32 9.75 25.32 10.49 23.76 15.06 23.76 15.79 25.28 18.88 25.28 12.94 13.27"/><polygon class="cls-1" points="11.68 21.38 13.86 21.38 12.75 19.11 11.68 21.38"/><polygon class="cls-2" points="23.1 13.22 23.1 15.84 26.66 15.84 26.66 25.35 29.31 25.35 29.31 15.84 32.16 15.84 32.16 13.22 23.1 13.22"/><path class="cls-2" d="M30.69,17.3c.13,0,.25,0,.25-.17s-.12-.15-.23-.15H30.5v.32Zm-.19.59h-.16V16.84h.4c.25,0,.37.09.37.3a.27.27,0,0,1-.27.29l.3.46H31l-.28-.45H30.5Zm.19.24a.75.75,0,0,0,.74-.77.74.74,0,1,0-.74.77m-.93-.77a.93.93,0,1,1,.93.92.92.92,0,0,1-.93-.92"/></g></g></svg>