<svg xmlns="http://www.w3.org/2000/svg" xmlns:xlink="http://www.w3.org/1999/xlink" viewBox="0 0 67.06 67.06"><defs><style>.cls-1{fill:url(#Degradado_sin_nombre_3);}.cls-2{fill:#fff;fill-rule:evenodd;}</style><linearGradient id="Degradado_sin_nombre_3" x1="33.53" y1="67.06" x2="33.53" gradientUnits="userSpaceOnUse"><stop offset="0" stop-color="#10488f"/><stop offset="1" stop-color="#4d96be"/></linearGradient></defs><g id="Capa_2" data-name="Capa 2"><g id="Capa_1-2" data-name="Capa 1"><path class="cls-1" d="M33.53,67.06A33.53,33.53,0,1,1,67.06,33.53,33.57,33.57,0,0,1,33.53,67.06Z"/><path class="cls-2" d="M36.46,39.25l2.68,6.43H49.65V42.81H40.8l-1.83-5a4.87,4.87,0,0,0,1.4-3.43c0-.18,0-.35,0-.52l-7.8,4.5a5,5,0,0,0,3.91.84M41.08,16.8,13.21,32.89l9.76,4L48,22.5l-2.64-4.56A3.12,3.12,0,0,0,41.08,16.8ZM16,35.54,13.27,37.1l4,7L20,42.55ZM22.84,43,48.25,28.29l-1.87-3.24L23.07,38.51,19.39,37Zm31-4.51H51.61a1.2,1.2,0,0,0-1.2,1.2v9.19a1.21,1.21,0,0,0,1.2,1.21h2.24Z"/></g></g></svg>