<svg xmlns="http://www.w3.org/2000/svg" xmlns:xlink="http://www.w3.org/1999/xlink" viewBox="0 0 83.81 87.57"><defs><style>.cls-1{fill:url(#Degradado_sin_nombre_55);}.cls-2{fill:url(#Degradado_sin_nombre_55-2);}.cls-3{fill:url(#Degradado_sin_nombre_55-3);}.cls-4{fill:url(#Degradado_sin_nombre_55-4);}</style><linearGradient id="Degradado_sin_nombre_55" x1="9.98" y1="20.12" x2="27.69" y2="20.12" gradientUnits="userSpaceOnUse"><stop offset="0" stop-color="#10488f"/><stop offset="1" stop-color="#4d96be"/></linearGradient><linearGradient id="Degradado_sin_nombre_55-2" x1="0" y1="14.35" x2="25.04" y2="14.35" xlink:href="#Degradado_sin_nombre_55"/><linearGradient id="Degradado_sin_nombre_55-3" x1="4.21" y1="44.65" x2="83.81" y2="44.65" xlink:href="#Degradado_sin_nombre_55"/><linearGradient id="Degradado_sin_nombre_55-4" x1="56.7" y1="31.59" x2="79.63" y2="31.59" xlink:href="#Degradado_sin_nombre_55"/></defs><g id="Capa_2" data-name="Capa 2"><g id="Capa_1-2" data-name="Capa 1"><path class="cls-1" d="M26.83,10.41A2,2,0,0,0,25,10.2,24.19,24.19,0,0,0,10,27.8,2,2,0,0,0,12,30.19h0a2,2,0,0,0,1.94-1.6A20.22,20.22,0,0,1,26.43,13.88a2,2,0,0,0,.4-3.47Z"/><path class="cls-2" d="M23.71,4A2.08,2.08,0,0,0,22.21.14,35.6,35.6,0,0,0,0,26.19a2.1,2.1,0,0,0,2.05,2.52h0a2.08,2.08,0,0,0,2-1.68A31.42,31.42,0,0,1,23.71,4Z"/><path class="cls-3" d="M44,87.57A15,15,0,0,1,30.3,78H10.51a6.23,6.23,0,0,1-5.76-3.72,6.12,6.12,0,0,1,1.07-6.67l8.49-9.4a4.37,4.37,0,0,0,1.15-3v-14A28.08,28.08,0,0,1,34.41,14.82V11.33a9.6,9.6,0,1,1,19.2,0v3.53a28.58,28.58,0,0,1,3.13,1.37,3.18,3.18,0,0,1,.72,5.18A14.2,14.2,0,0,0,52.82,32,14.37,14.37,0,0,0,67.17,46.3a13.71,13.71,0,0,0,1.8-.13,3.18,3.18,0,0,1,3.58,3.16v6a4.42,4.42,0,0,0,1.15,3h0l8.49,9.4a6.14,6.14,0,0,1,1.08,6.67A6.24,6.24,0,0,1,77.51,78H57.72A15,15,0,0,1,44,87.57ZM10.78,71.67H32.63a3.2,3.2,0,0,1,3.12,2.5,8.82,8.82,0,0,0,8.26,7,8.82,8.82,0,0,0,8.26-7,3.19,3.19,0,0,1,3.11-2.5H77.24L69,62.52a10.73,10.73,0,0,1-2.8-7.24V52.65A20.69,20.69,0,0,1,50,20.38l-.43-.11a3.19,3.19,0,0,1-2.34-3.62V11.33a3.2,3.2,0,0,0-1-2.3,3.23,3.23,0,0,0-5.5,2.3v5.33a3.18,3.18,0,0,1-2.36,3.59,21.76,21.76,0,0,0-16.58,21v14A10.82,10.82,0,0,1,19,62.53ZM47.27,16.5Z"/><path class="cls-4" d="M68.17,20.12A11.47,11.47,0,1,0,79.63,31.59,11.47,11.47,0,0,0,68.17,20.12Zm1.91,18.33H67.37V29H64.08v-1.9h.4a5,5,0,0,0,1.63-.23,3.07,3.07,0,0,0,1-.58,2.08,2.08,0,0,0,.54-.77,2.47,2.47,0,0,0,.18-.81h2.23Z"/></g></g></svg>