<svg xmlns="http://www.w3.org/2000/svg" xmlns:xlink="http://www.w3.org/1999/xlink" viewBox="0 0 67.06 67.06"><defs><style>.cls-1{fill:url(#Degradado_sin_nombre_3);}.cls-2{fill:#fff;}</style><linearGradient id="Degradado_sin_nombre_3" x1="33.53" y1="67.06" x2="33.53" gradientUnits="userSpaceOnUse"><stop offset="0" stop-color="#10488f"/><stop offset="1" stop-color="#4d96be"/></linearGradient></defs><g id="Capa_2" data-name="Capa 2"><g id="Capa_1-2" data-name="Capa 1"><path class="cls-1" d="M33.53,67.06A33.53,33.53,0,1,1,67.06,33.53,33.57,33.57,0,0,1,33.53,67.06Z"/><path class="cls-2" d="M34.46,42V36.87a.93.93,0,0,0-1.86,0V42a3.91,3.91,0,1,0,1.86,0Z"/><path class="cls-2" d="M38.72,39.77V18.58a5.19,5.19,0,1,0-10.38,0V39.77a7.92,7.92,0,1,0,10.38,0ZM33.71,52a6.25,6.25,0,0,1-4-11.16.86.86,0,0,0,.34-.69V18.58a3.52,3.52,0,0,1,6.93-.86H33.86a.56.56,0,0,0,0,1.12h3.19v1.44H35.32a.56.56,0,1,0,0,1.11h1.73v1.44H33.86a.56.56,0,0,0,0,1.12h3.19v1.44H35.32a.56.56,0,1,0,0,1.11h1.73v1.44H33.86a.56.56,0,0,0,0,1.12h3.19v1.43H35.32a.56.56,0,0,0,0,1.12h1.73v1.44H33.86a.56.56,0,0,0,0,1.11h3.19v6a.9.9,0,0,0,.35.71A6.25,6.25,0,0,1,33.71,52Z"/></g></g></svg>