<svg xmlns="http://www.w3.org/2000/svg" xmlns:xlink="http://www.w3.org/1999/xlink" viewBox="0 0 67.06 67.06"><defs><style>.cls-1{fill:url(#Degradado_sin_nombre_3);}.cls-2{fill:#fff;}</style><linearGradient id="Degradado_sin_nombre_3" x1="33.53" y1="67.06" x2="33.53" gradientUnits="userSpaceOnUse"><stop offset="0" stop-color="#10488f"/><stop offset="1" stop-color="#4d96be"/></linearGradient></defs><g id="Capa_2" data-name="Capa 2"><g id="Capa_1-2" data-name="Capa 1"><path class="cls-1" d="M33.53,67.06A33.53,33.53,0,1,1,67.06,33.53,33.57,33.57,0,0,1,33.53,67.06Z"/><path class="cls-2" d="M27,26.88v13.3c0,.94.87,1.54,1.58,1.09l11-7a1.34,1.34,0,0,0,0-2.19L28.53,25.77A1.08,1.08,0,0,0,27,26.88Z"/><path class="cls-2" d="M32.74,53.34A19.81,19.81,0,1,1,52.55,33.53,19.84,19.84,0,0,1,32.74,53.34Zm0-37.84a18,18,0,1,0,18,18A18.05,18.05,0,0,0,32.74,15.5Z"/></g></g></svg>